<svg xmlns="http://www.w3.org/2000/svg" width="48" height="48" style=""><rect id="backgroundrect" width="100%" height="100%" x="0" y="0" fill="none" stroke="none"/><title>ONE-xicons</title><g class="currentLayer" style=""><title>Layer 1</title><path d="M1.4999998807907104,47.0816325545311 a0.5,0.5 0 0 1 -0.35000000000000014,-0.8500000000000003 l45,-45 a0.5,0.5 0 0 1 0.7100000000000003,0.7100000000000003 l-45,45 A0.5,0.5 0 0 1 1.4999998807907104,47.0816325545311 z" id="svg_1" class="" fill-opacity="1" fill="#d00000"/><path d="M46.5,47a0.5,0.5,0,0,1-.35-0.15l-45-45a0.5,0.5,0,0,1,.71-0.71l45,45A0.5,0.5,0,0,1,46.5,47Z" id="svg_2" class="" fill="#d00000" fill-opacity="1"/></g></svg>